{
  "accessors": [
    {
      "bufferView": 3,
      "componentType": 5126,
      "count": 3021,
      "max": [
        1.0829373598098755,
        1.7867343425750732,
        0.4562694728374481
      ],
      "min": [
        -1.0829373598098755,
        0.001297699403949082,
        -0.5192378759384155
      ],
      "type": "VEC3"
    },
    {
      "bufferView": 3,
      "byteOffset": 36252,
      "componentType": 5126,
      "count": 3021,
      "max": [
        0.9999784827232361,
        0.9994764924049377,
        0.9999420046806335
      ],
      "min": [
        -0.9999973177909851,
        -1.0,
        -0.9998617768287659
      ],
      "type": "VEC3"
    },
    {
      "bufferView": 2,
      "componentType": 5126,
      "count": 3021,
      "max": [
        0.994140625,
        0.994140625
      ],
      "min": [
        0.01241302490234375,
        0.005855560302734375
      ],
      "type": "VEC2"
    },
    {
      "bufferView": 1,
      "componentType": 5125,
      "count": 13623,
      "type": "SCALAR"
    },
    {
      "bufferView": 3,
      "byteOffset": 72504,
      "componentType": 5126,
      "count": 1851,
      "max": [
        0.2830466330051422,
        1.7520133256912231,
        0.3339436650276184
      ],
      "min": [
        -0.28304657340049744,
        1.0882383584976196,
        -0.07817570120096207
      ],
      "type": "VEC3"
    },
    {
      "bufferView": 3,
      "byteOffset": 94716,
      "componentType": 5126,
      "count": 1851,
      "max": [
        0.9999101161956787,
        0.9994454383850098,
        0.9998291730880737
      ],
      "min": [
        -0.9998908638954163,
        -0.9999109506607056,
        -0.9980475902557373
      ],
      "type": "VEC3"
    },
    {
      "bufferView": 2,
      "byteOffset": 24168,
      "componentType": 5126,
      "count": 1851,
      "max": [
        0.9934669137001038,
        0.9934126734733582
      ],
      "min": [
        0.044039737433195114,
        0.42794185876846313
      ],
      "type": "VEC2"
    },
    {
      "bufferView": 1,
      "byteOffset": 54492,
      "componentType": 5125,
      "count": 7914,
      "type": "SCALAR"
    },
    {
      "bufferView": 5,
      "componentType": 5126,
      "count": 43,
      "max": [
        100.0,
        0.7360621690750122,
        0.9999998211860657,
        0.0,
        0.9999998211860657,
        100.0,
        0.9985383152961731,
        0.0,
        0.9617757797241211,
        1.0,
        100.00001525878906,
        0.0,
        0.4723682105541229,
        1.6489057540893555,
        1.3119632005691528,
        1.0
      ],
      "min": [
        -1.0000455379486084,
        -0.10205981135368347,
        -1.0,
        0.0,
        -0.9999997615814209,
        -0.9986369013786316,
        -0.9985382556915283,
        0.0,
        -0.9231055974960327,
        -0.9998387694358826,
        -0.8643864393234253,
        0.0,
        -1.3348886966705322,
        -1.2281312942504883,
        -1.3119299411773682,
        1.0
      ],
      "type": "MAT4"
    },
    {
      "bufferView": 0,
      "componentType": 5123,
      "count": 3021,
      "type": "VEC4"
    },
    {
      "bufferView": 4,
      "componentType": 5126,
      "count": 3021,
      "max": [
        1.0,
        0.4986889958381653,
        0.32168999314308167,
        0.13143512606620789
      ],
      "min": [
        0.3247550427913666,
        0.0,
        0.0,
        0.0
      ],
      "type": "VEC4"
    },
    {
      "bufferView": 0,
      "byteOffset": 24168,
      "componentType": 5123,
      "count": 1851,
      "type": "VEC4"
    },
    {
      "bufferView": 4,
      "byteOffset": 48336,
      "componentType": 5126,
      "count": 1851,
      "max": [
        1.0,
        0.47221601009368896,
        0.2798777222633362,
        0.09013000130653381
      ],
      "min": [
        0.34454867243766785,
        0.0,
        0.0,
        0.0
      ],
      "type": "VEC4"
    }
  ],
  "asset": {
    "extras": {
      "author": "timedrfreeman (https://sketchfab.com/timedrfreeman)",
      "license": "CC-BY-4.0 (http://creativecommons.org/licenses/by/4.0/)",
      "source": "https://sketchfab.com/3d-models/peter-griffin-253c345752ec43f18f4a7d906312a1c3",
      "title": "Peter Griffin"
    },
    "generator": "Sketchfab-16.31.0",
    "version": "2.0"
  },
  "bufferViews": [
    {
      "buffer": 0,
      "byteLength": 38976,
      "byteStride": 8,
      "name": "shortBufferViews",
      "target": 34962
    },
    {
      "buffer": 0,
      "byteLength": 86148,
      "byteOffset": 38976,
      "name": "floatBufferViews",
      "target": 34963
    },
    {
      "buffer": 0,
      "byteLength": 38976,
      "byteOffset": 125124,
      "byteStride": 8,
      "name": "floatBufferViews",
      "target": 34962
    },
    {
      "buffer": 0,
      "byteLength": 116928,
      "byteOffset": 164100,
      "byteStride": 12,
      "name": "floatBufferViews",
      "target": 34962
    },
    {
      "buffer": 0,
      "byteLength": 77952,
      "byteOffset": 281028,
      "byteStride": 16,
      "name": "floatBufferViews",
      "target": 34962
    },
    {
      "buffer": 0,
      "byteLength": 2752,
      "byteOffset": 358980,
      "name": "floatBufferViews"
    }
  ],
  "buffers": [
    {
      "byteLength": 361732,
      "uri": "scene.bin"
    }
  ],
  "images": [
    {
      "uri": "textures/M_FG_CHR_PeterGriffin_baseColor.png"
    }
  ],
  "materials": [
    {
      "doubleSided": true,
      "name": "M_FG_CHR_PeterGriffin",
      "pbrMetallicRoughness": {
        "baseColorTexture": {
          "index": 0
        },
        "metallicFactor": 0.0,
        "roughnessFactor": 0.7885257473118872
      }
    }
  ],
  "meshes": [
    {
      "name": "Body_LOD0_M_FG_CHR_PeterGriffin_0",
      "primitives": [
        {
          "attributes": {
            "JOINTS_0": 9,
            "NORMAL": 1,
            "POSITION": 0,
            "TEXCOORD_0": 2,
            "WEIGHTS_0": 10
          },
          "indices": 3,
          "material": 0,
          "mode": 4
        }
      ]
    },
    {
      "name": "0",
      "primitives": [
        {
          "attributes": {
            "JOINTS_0": 11,
            "NORMAL": 5,
            "POSITION": 4,
            "TEXCOORD_0": 6,
            "WEIGHTS_0": 12
          },
          "indices": 7,
          "material": 0,
          "mode": 4
        }
      ]
    }
  ],
  "nodes": [
    {
      "children": [
        1
      ],
      "matrix": [
        1.0,
        0.0,
        0.0,
        0.0,
        0.0,
        2.220446049250313e-16,
        -1.0,
        0.0,
        0.0,
        1.0,
        2.220446049250313e-16,
        0.0,
        0.0,
        0.0,
        0.0,
        1.0
      ],
      "name": "Sketchfab_model"
    },
    {
      "children": [
        2
      ],
      "matrix": [
        0.009999999776482582,
        0.0,
        0.0,
        0.0,
        0.0,
        0.0,
        0.009999999776482582,
        0.0,
        0.0,
        -0.009999999776482582,
        0.0,
        0.0,
        0.0,
        0.0,
        0.0,
        1.0
      ],
      "name": "P_DRIVER_FG_Peter.fbx"
    },
    {
      "children": [
        3
      ],
      "name": "RootNode"
    },
    {
      "children": [
        4
      ],
      "matrix": [
        100.0,
        0.0,
        0.0,
        0.0,
        0.0,
        99.99999999999866,
        1.6292067073209114e-05,
        0.0,
        0.0,
        -1.6292067073209114e-05,
        99.99999999999866,
        0.0,
        0.0,
        0.26499995589256287,
        0.06300000101327896,
        1.0
      ],
      "name": "P_DRIVER_FG_Peter"
    },
    {
      "children": [
        5,
        49,
        51,
        48,
        50
      ],
      "name": "Object_4"
    },
    {
      "children": [
        6
      ],
      "name": "_rootJoint"
    },
    {
      "children": [
        7
      ],
      "name": "Root_Global_01"
    },
    {
      "children": [
        8,
        40,
        44
      ],
      "name": "Root_M_02",
      "rotation": [
        0.4988860487937927,
        0.501111626625061,
        0.4988860487937927,
        0.5011113286018372
      ],
      "scale": [
        1.0000001192092896,
        1.0,
        1.0000001192092896
      ],
      "translation": [
        -3.082474232528093e-15,
        0.5567541122436523,
        -0.029999999329447746
      ]
    },
    {
      "children": [
        9
      ],
      "name": "Spine1_M_03",
      "rotation": [
        2.4613228122305486e-12,
        -8.033695236830951e-12,
        -5.6262011639773846e-05,
        1.0
      ],
      "scale": [
        1.0,
        1.0,
        0.9999998807907104
      ],
      "translation": [
        0.1788361519575119,
        3.4458935260772705e-08,
        7.817182456903993e-09
      ]
    },
    {
      "children": [
        10,
        14,
        27
      ],
      "name": "Chest_M_04",
      "rotation": [
        -1.0039026554498065e-10,
        3.003035042858926e-10,
        0.002281744731590152,
        0.9999974966049194
      ],
      "scale": [
        0.9999997019767761,
        0.9999999403953552,
        1.000000238418579
      ],
      "translation": [
        0.17440585792064667,
        -3.259631675689434e-09,
        7.620720055001584e-09
      ]
    },
    {
      "children": [
        11
      ],
      "name": "Neck_M_05",
      "rotation": [
        -8.157725606139365e-10,
        2.2830795032291462e-09,
        0.017513655126094818,
        0.9998466372489929
      ],
      "scale": [
        1.0,
        0.9999998211860657,
        0.9999998807907104
      ],
      "translation": [
        0.31999993324279785,
        -3.0107500492704276e-08,
        1.417469963627127e-08
      ]
    },
    {
      "children": [
        12,
        13
      ],
      "name": "Head_M_06",
      "rotation": [
        5.594593677216153e-10,
        -1.5391420360444386e-09,
        -0.011821954511106014,
        0.9999301433563232
      ],
      "scale": [
        1.0,
        0.9999998807907104,
        1.0
      ],
      "translation": [
        0.10270780324935913,
        1.4901154976598718e-08,
        5.018572224457785e-09
      ]
    },
    {
      "name": "Eye_R_07",
      "rotation": [
        -0.09295924752950668,
        0.09906782954931259,
        0.7147066593170166,
        0.686103880405426
      ],
      "scale": [
        0.9999999403953552,
        0.9999998211860657,
        0.9999996423721313
      ],
      "translation": [
        0.307891309261322,
        0.2093677818775177,
        -0.07420821487903595
      ]
    },
    {
      "name": "Eye_L_08",
      "rotation": [
        0.09295910596847534,
        -0.09906774759292603,
        0.7147067189216614,
        0.686103880405426
      ],
      "scale": [
        0.9999998807907104,
        0.9999998211860657,
        0.9999996423721313
      ],
      "translation": [
        0.30789127945899963,
        0.2093678116798401,
        0.07420824468135834
      ]
    },
    {
      "children": [
        15
      ],
      "name": "Scapula_R_09",
      "rotation": [
        -0.019115380942821503,
        0.7068482637405396,
        0.019115375354886055,
        0.7068484425544739
      ],
      "scale": [
        0.9999998807907104,
        0.9999997019767761,
        0.9999998807907104
      ],
      "translation": [
        0.27561986446380615,
        -2.0664748134890942e-08,
        -0.024999983608722687
      ]
    },
    {
      "children": [
        16
      ],
      "name": "Shoulder_R_010",
      "rotation": [
        0.019707120954990387,
        0.21707166731357574,
        -0.024250896647572517,
        0.9756553769111633
      ],
      "scale": [
        0.9999997019767761,
        0.9999999403953552,
        0.9999997615814209
      ],
      "translation": [
        0.2932681739330292,
        -2.1711748843245005e-08,
        -2.5050206886589876e-07
      ]
    },
    {
      "children": [
        17,
        18
      ],
      "name": "Elbow_R_011",
      "rotation": [
        1.2018671213809284e-07,
        6.225149462579793e-08,
        0.09139849245548248,
        0.9958143830299377
      ],
      "scale": [
        0.9999998211860657,
        0.9999997019767761,
        0.9999998211860657
      ],
      "translation": [
        0.29676952958106995,
        -2.7939677238464355e-08,
        -1.5601416691879422e-07
      ]
    },
    {
      "name": "ElbowPart1_R_012",
      "rotation": [
        -7.509213695300332e-09,
        -7.268128854320821e-08,
        -5.587934559514451e-09,
        1.0
      ],
      "scale": [
        1.0000001192092896,
        1.0000001192092896,
        1.0000001192092896
      ],
      "translation": [
        0.13743993639945984,
        2.2351741790771484e-08,
        4.2684291656769346e-08
      ]
    },
    {
      "children": [
        19,
        21,
        23,
        25
      ],
      "name": "Wrist_R_013",
      "rotation": [
        9.79333836248486e-10,
        -7.326219986225624e-08,
        9.359790453800088e-08,
        1.0
      ],
      "scale": [
        1.0000001192092896,
        1.0000001192092896,
        1.0000001192092896
      ],
      "translation": [
        0.27487996220588684,
        2.60770320892334e-08,
        3.623788558115848e-08
      ]
    },
    {
      "children": [
        20
      ],
      "name": "MiddleFinger1_R_014",
      "rotation": [
        -0.01673540659248829,
        0.16494883596897125,
        0.0061219194903969765,
        0.9861411452293396
      ],
      "scale": [
        1.0,
        1.0000001192092896,
        1.0000001192092896
      ],
      "translation": [
        0.16762471199035645,
        -0.0021684616804122925,
        -0.00559812830761075
      ]
    },
    {
      "name": "MiddleFinger2_R_015",
      "rotation": [
        0.0003155492013320327,
        -0.011357786133885384,
        0.0003029266663361341,
        0.999935507774353
      ],
      "scale": [
        0.9999998807907104,
        1.0000001192092896,
        1.0000001192092896
      ],
      "translation": [
        0.05991728603839874,
        -5.587935447692871e-09,
        -5.704350769519806e-09
      ]
    },
    {
      "children": [
        22
      ],
      "name": "ThumbFinger1_R_016",
      "rotation": [
        -0.6640470623970032,
        -0.02963981032371521,
        0.32730090618133545,
        0.6715930700302124
      ],
      "scale": [
        0.9999999403953552,
        0.9999998807907104,
        1.0000001192092896
      ],
      "translation": [
        0.02331244759261608,
        0.06808372586965561,
        -0.029130421578884125
      ]
    },
    {
      "name": "ThumbFinger2_R_00",
      "rotation": [
        0.05942010134458542,
        0.04392273724079132,
        -0.043767575174570084,
        0.9963054060935974
      ],
      "scale": [
        1.0,
        0.9999999403953552,
        1.0
      ],
      "translation": [
        0.1221083402633667,
        9.313225746154785e-08,
        6.332993507385254e-08
      ]
    },
    {
      "children": [
        24
      ],
      "name": "IndexFinger1_R_017",
      "rotation": [
        -0.07124869525432587,
        0.16440275311470032,
        0.07551834732294083,
        0.9809140563011169
      ],
      "scale": [
        1.000000238418579,
        1.0000001192092896,
        1.0
      ],
      "translation": [
        0.15709801018238068,
        0.05856949836015701,
        -0.00950160063803196
      ]
    },
    {
      "name": "IndexFinger2_R_018",
      "rotation": [
        -6.700200628984021e-06,
        -0.016946859657764435,
        0.0003754005010705441,
        0.9998564124107361
      ],
      "scale": [
        1.0,
        0.9999998211860657,
        1.0
      ],
      "translation": [
        0.05634064972400665,
        3.073364496231079e-08,
        3.5390257835388184e-08
      ]
    },
    {
      "children": [
        26
      ],
      "name": "PinkyFinger1_R_019",
      "rotation": [
        0.03137526661157608,
        0.1859455108642578,
        -0.1079460009932518,
        0.9761083722114563
      ],
      "scale": [
        1.0,
        1.0000001192092896,
        1.0000001192092896
      ],
      "translation": [
        0.15551528334617615,
        -0.06156640499830246,
        -0.006375467870384455
      ]
    },
    {
      "name": "PinkyFinger2_R_020",
      "rotation": [
        0.00031635648338124156,
        -0.007718808948993683,
        0.00037126473034732044,
        0.9999700784683228
      ],
      "scale": [
        0.9999998211860657,
        0.9999998807907104,
        0.9999999403953552
      ],
      "translation": [
        0.056882575154304504,
        2.0489096641540527e-08,
        -5.192123353481293e-08
      ]
    },
    {
      "children": [
        28
      ],
      "name": "Scapula_L_021",
      "rotation": [
        -0.7068331241607666,
        -0.019083332270383835,
        0.7068653106689453,
        -0.019084492698311806
      ],
      "scale": [
        0.9999542236328125,
        0.9999997019767761,
        0.9999998807907104
      ],
      "translation": [
        0.27561986446380615,
        -1.9327117684042605e-08,
        0.025000007823109627
      ]
    },
    {
      "children": [
        29
      ],
      "name": "Shoulder_L_022",
      "rotation": [
        0.019707411527633667,
        0.21707172691822052,
        -0.02425207756459713,
        0.9756554365158081
      ],
      "scale": [
        0.9999998807907104,
        1.0,
        0.9999999403953552
      ],
      "translation": [
        -0.29328155517578125,
        6.494126978395798e-07,
        7.745433094896725e-08
      ]
    },
    {
      "children": [
        30,
        31
      ],
      "name": "Elbow_L_023",
      "rotation": [
        -2.2998967779130908e-06,
        8.561653885408305e-06,
        0.09140173345804214,
        0.9958142042160034
      ],
      "scale": [
        1.0000001192092896,
        0.9999999403953552,
        1.0000001192092896
      ],
      "translation": [
        -0.29678061604499817,
        -7.674098014831543e-07,
        -5.369584869185928e-06
      ]
    },
    {
      "name": "ElbowPart1_L_024",
      "rotation": [
        3.433001882768849e-09,
        -7.451472328057207e-08,
        7.124619116893882e-08,
        1.0
      ],
      "scale": [
        0.9999998807907104,
        0.9999998211860657,
        0.9999998807907104
      ],
      "translation": [
        -0.13744500279426575,
        1.4863908290863037e-06,
        -4.820589765586192e-06
      ]
    },
    {
      "children": [
        32,
        34,
        36,
        38
      ],
      "name": "Wrist_L_025",
      "rotation": [
        3.0257872651873186e-08,
        -1.5872035419306485e-07,
        2.7939681679356454e-09,
        1.0
      ],
      "scale": [
        0.9999998807907104,
        0.9999998211860657,
        0.9999998807907104
      ],
      "translation": [
        -0.2748899757862091,
        2.954155206680298e-06,
        -9.711917300592177e-06
      ]
    },
    {
      "children": [
        33
      ],
      "name": "MiddleFinger1_L_026",
      "rotation": [
        -0.016736311838030815,
        0.16494928300380707,
        0.006122072227299213,
        0.9861411452293396
      ],
      "scale": [
        1.0,
        0.9999998211860657,
        0.9999997615814209
      ],
      "translation": [
        -0.16763100028038025,
        0.002170243766158819,
        0.005592251196503639
      ]
    },
    {
      "name": "MiddleFinger2_L_027",
      "rotation": [
        0.0003163288056384772,
        -0.011355344206094742,
        0.000302881991956383,
        0.9999354481697083
      ],
      "scale": [
        0.9999997615814209,
        0.9999999403953552,
        0.9999998807907104
      ],
      "translation": [
        -0.05991875380277634,
        6.146728992462158e-07,
        -2.5006593205034733e-06
      ]
    },
    {
      "children": [
        35
      ],
      "name": "ThumbFinger1_L_028",
      "rotation": [
        -0.6640419363975525,
        -0.029639868065714836,
        0.32730230689048767,
        0.6715973615646362
      ],
      "scale": [
        0.9999999403953552,
        0.9999998211860657,
        0.9999998807907104
      ],
      "translation": [
        -0.023313354700803757,
        -0.06808368861675262,
        0.02912978269159794
      ]
    },
    {
      "name": "ThumbFinger2_L_029",
      "rotation": [
        0.059418268501758575,
        0.04392128437757492,
        -0.043766941875219345,
        0.9963055849075317
      ],
      "scale": [
        1.0000003576278687,
        1.0000001192092896,
        1.0000001192092896
      ],
      "translation": [
        -0.12210960686206818,
        3.8370490074157715e-06,
        2.5294721126556396e-06
      ]
    },
    {
      "children": [
        37
      ],
      "name": "IndexFinger1_L_030",
      "rotation": [
        -0.0712522491812706,
        0.16440176963806152,
        0.07552063465118408,
        0.9809137582778931
      ],
      "scale": [
        0.9999998807907104,
        0.9999998807907104,
        0.9999998807907104
      ],
      "translation": [
        -0.15710383653640747,
        -0.058567918837070465,
        0.009496166370809078
      ]
    },
    {
      "name": "IndexFinger2_L_031",
      "rotation": [
        -6.020237378834281e-06,
        -0.016944464296102524,
        0.00037550146225839853,
        0.9998564720153809
      ],
      "scale": [
        0.9999998807907104,
        0.9999998211860657,
        1.0000001192092896
      ],
      "translation": [
        -0.05634166672825813,
        1.064501702785492e-06,
        -1.953914761543274e-06
      ]
    },
    {
      "children": [
        39
      ],
      "name": "PinkyFinger1_L_032",
      "rotation": [
        0.03137999400496483,
        0.18594567477703094,
        -0.10794920474290848,
        0.9761078357696533
      ],
      "scale": [
        1.0000001192092896,
        1.0,
        0.9999996423721313
      ],
      "translation": [
        -0.15552107989788055,
        0.06156810745596886,
        0.00637007737532258
      ]
    },
    {
      "name": "PinkyFinger2_L_033",
      "rotation": [
        0.00031639932421967387,
        -0.007715417072176933,
        0.00037112124846316874,
        0.9999701380729675
      ],
      "scale": [
        1.0,
        1.0,
        1.0000001192092896
      ],
      "translation": [
        -0.05688372999429703,
        -2.849847078323364e-07,
        -2.2498425096273422e-06
      ]
    },
    {
      "children": [
        41
      ],
      "name": "Hip_R_034",
      "rotation": [
        0.04592509940266609,
        0.998944878578186,
        4.0198020911930143e-08,
        7.742568897128876e-08
      ],
      "scale": [
        0.9999998807907104,
        1.0000005960464478,
        0.9999998807907104
      ],
      "translation": [
        -0.09135997295379639,
        -0.04040702432394028,
        -0.1895933747291565
      ]
    },
    {
      "children": [
        42
      ],
      "name": "Knee_R_035",
      "rotation": [
        -9.030351577621332e-09,
        3.871637943575479e-08,
        -0.10295404493808746,
        0.9946861267089844
      ],
      "scale": [
        0.9999997019767761,
        0.9999997019767761,
        1.0000001192092896
      ],
      "translation": [
        0.1721648871898651,
        4.4931578457863e-08,
        -1.5019434584928604e-08
      ]
    },
    {
      "children": [
        43
      ],
      "name": "Ankle_R_036",
      "rotation": [
        -0.008932770229876041,
        -0.000491514103487134,
        0.05494019761681557,
        0.9984495639801025
      ],
      "scale": [
        1.0,
        1.0000001192092896,
        0.9999997019767761
      ],
      "translation": [
        0.1417543739080429,
        2.426678236133739e-08,
        -3.997231345920227e-08
      ]
    },
    {
      "name": "Toes_R_037",
      "rotation": [
        0.007443243637681007,
        -0.00496290298178792,
        0.5547309517860413,
        0.8319818377494812
      ],
      "scale": [
        1.0,
        0.9999998807907104,
        1.0000001192092896
      ],
      "translation": [
        0.0825725644826889,
        0.16186369955539703,
        -1.340539412808539e-08
      ]
    },
    {
      "children": [
        45
      ],
      "name": "Hip_L_038",
      "rotation": [
        0.998944878578186,
        -0.04592590779066086,
        -4.019799604293439e-08,
        -7.742572449842555e-08
      ],
      "scale": [
        1.000034213066101,
        1.0000005960464478,
        0.9999998807907104
      ],
      "translation": [
        -0.09135997295379639,
        -0.040406979620456696,
        0.1895933747291565
      ]
    },
    {
      "children": [
        46
      ],
      "name": "Knee_L_039",
      "rotation": [
        -7.74755903876212e-09,
        3.63376955192507e-08,
        -0.1029507964849472,
        0.9946865439414978
      ],
      "scale": [
        0.9999997615814209,
        0.9999998807907104,
        1.0000001192092896
      ],
      "translation": [
        -0.17215897142887115,
        6.204890610206348e-07,
        4.8131457930367105e-08
      ]
    },
    {
      "children": [
        47
      ],
      "name": "Ankle_L_040",
      "rotation": [
        -0.00893277209252119,
        -0.0004914893070235848,
        0.05493850260972977,
        0.9984496831893921
      ],
      "scale": [
        0.9999999403953552,
        1.0000001192092896,
        0.9999997019767761
      ],
      "translation": [
        -0.141749769449234,
        2.352573801545077e-06,
        2.1891946033747445e-08
      ]
    },
    {
      "name": "Toes_L_041",
      "rotation": [
        0.007443789392709732,
        -0.004963122308254242,
        0.5547225475311279,
        0.8319873213768005
      ],
      "scale": [
        1.000000238418579,
        0.9999998807907104,
        1.0000001192092896
      ],
      "translation": [
        -0.08256974071264267,
        -0.1618628203868866,
        2.2915527253530854e-08
      ]
    },
    {
      "matrix": [
        100.0,
        -1.5791993018679212e-06,
        8.006164711848946e-07,
        0.0,
        1.579199170830156e-06,
        99.99999999999997,
        1.636710823049726e-05,
        0.0,
        -8.006168250951048e-07,
        -1.6367110168965277e-05,
        100.00001192092896,
        0.0,
        1.417230066635966e-06,
        0.2649939824088102,
        0.0630000044054332,
        1.0
      ],
      "name": "Object_48"
    },
    {
      "mesh": 0,
      "name": "Object_49",
      "skin": 0
    },
    {
      "matrix": [
        100.0,
        -1.5791993018679212e-06,
        8.006164711848946e-07,
        0.0,
        1.579199170830156e-06,
        99.99999999999997,
        1.636710823049726e-05,
        0.0,
        -8.006168250951048e-07,
        -1.6367110168965277e-05,
        100.00001192092896,
        0.0,
        1.417230066635966e-06,
        0.2649924922927515,
        0.06299963187640761,
        1.0
      ],
      "name": "Object_50"
    },
    {
      "mesh": 1,
      "name": "Object_51",
      "skin": 0
    }
  ],
  "samplers": [
    {
      "magFilter": 9729,
      "minFilter": 9987,
      "wrapS": 10497,
      "wrapT": 10497
    }
  ],
  "scene": 0,
  "scenes": [
    {
      "name": "Sketchfab_Scene",
      "nodes": [
        0
      ]
    }
  ],
  "skins": [
    {
      "inverseBindMatrices": 8,
      "joints": [
        5,
        6,
        7,
        8,
        9,
        10,
        11,
        12,
        13,
        14,
        15,
        16,
        17,
        18,
        19,
        20,
        21,
        22,
        23,
        24,
        25,
        26,
        27,
        28,
        29,
        30,
        31,
        32,
        33,
        34,
        35,
        36,
        37,
        38,
        39,
        40,
        41,
        42,
        43,
        44,
        45,
        46,
        47
      ],
      "skeleton": 5
    }
  ],
  "textures": [
    {
      "sampler": 0,
      "source": 0
    }
  ]
}
